<?xml version="1.0" standalone="no"?>
<!DOCTYPE svg PUBLIC "-//W3C//DTD SVG 20010904//EN"
 "http://www.w3.org/TR/2001/REC-SVG-20010904/DTD/svg10.dtd">
<svg version="1.0" xmlns="http://www.w3.org/2000/svg"
 width="1024.000000pt" height="1024.000000pt" viewBox="0 0 1024.000000 1024.000000"
 preserveAspectRatio="xMidYMid meet">
<metadata>
Created by potrace 1.14, written by Peter Selinger 2001-2017
</metadata>
<g transform="translate(0.000000,1024.000000) scale(0.100000,-0.100000)"
fill="#000000" stroke="none">
<path d="M4937 8634 c-1 -1 -261 -5 -577 -8 -316 -4 -636 -9 -710 -11 -231 -7
-472 -15 -555 -20 -44 -2 -143 -7 -220 -10 -77 -3 -167 -8 -200 -10 -33 -2
-107 -7 -165 -10 -58 -3 -127 -7 -155 -10 -27 -2 -88 -7 -135 -10 -47 -3 -103
-8 -125 -10 -22 -3 -67 -7 -100 -10 -184 -13 -591 -65 -755 -96 -221 -42 -464
-172 -623 -334 -200 -202 -307 -411 -362 -700 -8 -41 -36 -204 -40 -235 -23
-150 -39 -273 -49 -375 -4 -33 -9 -78 -11 -100 -9 -69 -14 -128 -20 -210 -4
-44 -8 -100 -10 -125 -2 -25 -7 -94 -10 -155 -4 -60 -8 -128 -10 -150 -27
-330 -27 -1576 0 -1900 2 -27 7 -90 10 -140 12 -194 16 -241 20 -270 2 -16 7
-66 10 -110 4 -44 8 -87 10 -95 2 -8 7 -51 11 -95 3 -44 8 -82 9 -85 2 -3 6
-33 10 -65 3 -33 8 -67 10 -75 2 -8 7 -37 10 -65 5 -42 25 -156 50 -277 3 -16
7 -40 10 -55 90 -462 413 -833 845 -971 52 -17 113 -34 135 -38 22 -4 45 -8
50 -10 6 -1 30 -5 55 -8 25 -4 56 -9 70 -11 14 -3 43 -7 65 -10 22 -2 61 -7
86 -10 26 -3 64 -7 85 -9 189 -20 257 -27 309 -31 33 -3 83 -7 110 -10 28 -2
93 -7 145 -10 52 -3 113 -8 135 -10 22 -2 101 -6 175 -10 74 -3 153 -8 175
-10 22 -2 112 -6 200 -10 88 -3 192 -8 230 -10 65 -4 330 -13 595 -20 781 -23
2368 -23 2990 0 47 2 173 6 280 10 107 3 227 8 265 10 39 2 133 6 210 10 77 4
165 8 195 10 30 2 100 7 155 10 55 3 118 8 140 10 23 1 86 6 140 9 55 4 107 8
115 11 8 2 57 6 107 10 51 3 103 8 115 10 13 2 46 6 73 10 165 19 253 31 295
40 13 2 42 7 65 11 280 41 524 164 725 364 181 181 296 399 344 650 2 14 11
59 20 100 16 83 17 85 46 285 12 77 23 151 25 165 2 14 7 52 10 85 3 33 8 74
10 90 2 17 7 62 10 100 4 39 9 78 11 88 1 9 6 63 10 120 3 56 8 109 9 118 2 9
6 72 10 140 4 68 9 140 11 159 12 143 19 481 19 915 0 513 -6 705 -30 1045 -3
47 -8 114 -10 150 -3 36 -7 83 -10 105 -2 22 -7 67 -10 100 -10 99 -24 222
-30 265 -2 14 -7 45 -10 70 -7 51 -8 61 -29 190 -17 103 -24 142 -31 180 -3
14 -7 35 -9 46 -37 196 -77 326 -137 446 -95 192 -212 329 -404 476 -98 75
-338 177 -495 211 -143 31 -423 64 -725 86 -44 3 -100 8 -125 10 -50 5 -202
14 -330 20 -47 3 -128 7 -180 10 -262 14 -639 28 -1070 40 -91 3 -435 8 -765
11 -330 3 -644 6 -698 7 -54 1 -99 1 -100 1z"/>
</g>
</svg>
